<svg xmlns="http://www.w3.org/2000/svg" xmlns:xlink="http://www.w3.org/1999/xlink" width="500" zoomAndPan="magnify" viewBox="0 0 375 374.999991" height="500" preserveAspectRatio="xMidYMid meet" version="1.0"><defs><clipPath id="id1"><path d="M 5.328125 0 L 358 0 L 358 375 L 5.328125 375 Z M 5.328125 0 " clip-rule="nonzero"/></clipPath></defs><rect x="-37.5" width="450" fill="#ffffff" y="-37.499999" height="449.999989" fill-opacity="1"/><rect x="-37.5" width="450" fill="#151f28" y="-37.499999" height="449.999989" fill-opacity="1"/><rect x="-37.5" width="450" fill="#ffffff" y="-37.499999" height="449.999989" fill-opacity="1"/><rect x="-37.5" width="450" fill="#151f28" y="-37.499999" height="449.999989" fill-opacity="1"/><g clip-path="url(#id1)"><path fill="#eeba2b" d="M 149.113281 275.683594 C 156.570312 281.324219 164.574219 290.425781 154.023438 314.082031 C 143.472656 337.742188 144.203125 362.851562 173.304688 372.132812 C 202.410156 381.414062 218.238281 352.84375 218.238281 352.84375 C 204.046875 353.570312 187.3125 350.660156 179.671875 329.914062 C 172.03125 309.167969 185.128906 295.339844 168.757812 282.964844 C 177.488281 286.238281 182.582031 295.703125 183.492188 310.988281 C 184.402344 326.273438 191.679688 342.835938 214.234375 346.476562 C 236.792969 350.117188 260.4375 358.484375 259.164062 374.683594 C 264.441406 360.488281 264.804688 344.472656 252.796875 329.730469 C 243.882812 336.28125 221.328125 333.371094 210.960938 316.445312 C 200.59375 299.523438 197.863281 288.058594 186.765625 281.324219 C 199.320312 286.058594 207.503906 298.25 214.054688 307.167969 C 220.601562 316.082031 227.515625 323.183594 245.160156 322.820312 C 233.699219 318.085938 218.417969 301.34375 218.964844 279.867188 C 200.957031 270.042969 168.757812 268.585938 149.113281 275.683594 Z M 103.273438 320.085938 C 95.199219 346.933594 115.097656 362.125 134.015625 370.132812 C 116.1875 360.125 111.457031 337.195312 117.277344 324.820312 C 123.097656 312.441406 127.28125 302.796875 127.464844 296.613281 C 127.464844 296.613281 131.648438 302.617188 126.554688 319.359375 C 121.464844 336.101562 123.28125 351.933594 135.46875 361.398438 C 128.011719 348.660156 128.558594 333.371094 143.109375 314.992188 C 157.664062 296.613281 151.296875 286.238281 145.835938 280.78125 C 147.660156 294.792969 135.652344 290.242188 129.46875 281.324219 C 123.28125 272.410156 112.003906 272.953125 104 275.867188 C 127.28125 277.503906 110.003906 297.703125 103.273438 320.085938 Z M 286.191406 20.9375 C 290.519531 35.195312 299.9375 103.695312 231.722656 150.550781 C 256.15625 140.617188 301.71875 103.441406 314.445312 62.1875 C 312.917969 48.949219 290.265625 24.246094 286.191406 20.9375 Z M 208.304688 176.011719 C 219.757812 179.070312 278.808594 203.257812 303.753906 271.757812 C 300.445312 252.148438 313.683594 237.382812 323.355469 259.535156 C 333.027344 281.6875 332.519531 298.496094 357.203125 305.113281 C 344.734375 293.914062 340.914062 278.375 342.699219 258.007812 C 344.480469 237.632812 338.371094 212.425781 320.554688 205.296875 C 326.152344 212.171875 329.207031 218.539062 322.847656 219.046875 C 316.480469 219.554688 302.734375 196.382812 323.863281 196.382812 C 311.390625 186.707031 262.773438 174.992188 230.703125 176.011719 C 270.664062 184.925781 307.316406 208.351562 307.316406 222.613281 C 307.316406 236.871094 285.9375 214.71875 271.429688 205.042969 C 256.917969 195.367188 228.667969 179.832031 208.304688 176.011719 Z M 285.9375 171.175781 C 307.039062 179.089844 340.152344 176.011719 344.480469 166.589844 C 305.792969 180.34375 290.265625 146.984375 304.519531 141.636719 C 318.773438 136.289062 339.390625 145.964844 342.1875 155.640625 C 380.113281 114.390625 337.097656 50.222656 322.847656 40.796875 C 343.207031 105.730469 228.667969 163.789062 218.738281 167.609375 C 234.523438 162.007812 263.539062 162.773438 285.9375 171.175781 Z M 134.238281 96.566406 C 160.707031 94.273438 174.199219 80.015625 175.214844 68.554688 C 172.667969 75.429688 159.6875 84.089844 157.652344 75.175781 C 155.613281 66.261719 163.253906 62.953125 192.269531 57.09375 C 221.285156 51.238281 237.066406 32.394531 236.558594 16.605469 C 229.941406 29.597656 206.015625 39.78125 183.613281 43.601562 C 161.214844 47.417969 137.800781 53.277344 135.253906 66.519531 C 135.253906 66.519531 146.199219 61.171875 146.199219 72.628906 C 146.199219 84.089844 123.289062 88.160156 121 75.9375 C 118.707031 63.71875 127.871094 53.019531 148.742188 42.328125 C 169.617188 31.628906 178.015625 18.644531 173.6875 8.714844 C 173.433594 19.410156 158.925781 26.03125 126.855469 40.796875 C 94.785156 55.566406 82.054688 100.894531 86.636719 117.953125 C 89.691406 109.296875 107.761719 98.859375 134.238281 96.566406 Z M 187.429688 69.316406 C 203.976562 78.230469 227.140625 135.78125 195.832031 170.917969 C 220.519531 157.679688 265.320312 118.71875 278.300781 54.292969 C 270.664062 69.828125 257.429688 88.160156 238.847656 88.160156 C 220.269531 88.160156 235.792969 62.1875 247.246094 57.351562 C 258.703125 52.511719 261.757812 64.226562 250.558594 72.628906 C 267.613281 65.242188 284.917969 30.359375 264.8125 -6.308594 C 266.339844 4.894531 243.429688 64.480469 187.429688 69.316406 Z M 204.234375 121.011719 C 199.90625 133.488281 188.453125 168.628906 147.980469 178.558594 C 171.398438 177.539062 287.464844 222.355469 282.117188 329.050781 C 292.046875 316.066406 299.429688 293.914062 296.117188 277.101562 C 283.644531 244.253906 239.867188 197.148438 181.832031 171.683594 C 198.378906 158.1875 204.742188 135.015625 204.234375 121.011719 Z M 141.65625 187.613281 C 153.890625 193.035156 170.316406 207.019531 175.734375 229.226562 C 181.152344 251.429688 191.460938 266.816406 215.929688 269.261719 C 205.269531 264.714844 185.871094 243.5625 191.8125 220.136719 C 189.367188 216.109375 176.082031 201.949219 171.542969 199.503906 C 201.601562 211.566406 222.207031 235.496094 217.5 242.164062 C 213.308594 248.105469 202.472656 237.269531 200.726562 231.847656 C 198.453125 241.816406 213.167969 259.609375 228.863281 275.207031 C 255.949219 302.128906 270.453125 344.269531 270.453125 358.253906 C 274.125 342.167969 278.667969 284.648438 252.28125 259.296875 C 256.472656 266.640625 258.046875 274.332031 252.804688 277.128906 C 247.5625 279.929688 240.222656 268.738281 233.929688 250.207031 C 227.640625 231.671875 205.96875 196.355469 141.65625 187.613281 Z M 107.402344 259.296875 C 110.375 262.792969 101.109375 267.6875 98.488281 272.234375 C 98.488281 272.234375 110.722656 263.316406 132.742188 264.542969 C 154.761719 265.765625 175.386719 260.171875 178.53125 254.925781 C 172.414062 253.351562 168.742188 246.882812 167.519531 234.472656 C 166.296875 222.054688 158.433594 203 139.558594 198.628906 C 175.386719 221.53125 151.617188 251.953125 129.25 254.050781 C 114.285156 255.453125 114.742188 249.679688 116.488281 246.882812 C 77.867188 257.375 80.140625 287.621094 80.140625 298.808594 C 82.761719 266.640625 104.429688 255.796875 107.402344 259.296875 Z M 55.496094 247.757812 C 56.023438 254.578125 59.691406 279.230469 74.199219 293.914062 C 66.683594 282.375 63.539062 257.722656 65.285156 247.757812 C 76.296875 247.234375 85.558594 236.21875 84.859375 226.078125 C 83.460938 248.980469 49.90625 237.441406 49.03125 234.816406 C 49.558594 238.316406 51.128906 241.289062 55.496094 247.757812 Z M 5.515625 192.683594 C 6.566406 200.027344 19.5 213.316406 28.410156 220.65625 C 28.585938 224.679688 31.730469 238.488281 39.070312 242.511719 C 30.859375 209.992188 73.851562 210.519531 77.519531 212.964844 C 70.703125 198.976562 47.285156 206.144531 39.769531 209.292969 C 32.253906 212.441406 27.710938 208.246094 26.664062 206.847656 C 25.613281 205.445312 22.46875 200.550781 17.226562 196.355469 C 11.984375 192.160156 12.332031 188.839844 16.003906 181.496094 C 16.003906 181.496094 9.011719 183.941406 5.515625 192.683594 Z M 57.246094 148.976562 C 57.246094 148.976562 51.652344 143.378906 53.402344 135.863281 C 59.691406 137.4375 77.867188 130.269531 91.152344 120.300781 C 104.429688 110.335938 118.414062 110.863281 122.257812 111.558594 C 126.101562 112.257812 133.054688 113.84375 135.714844 111.210938 C 151.09375 96 186.570312 87.085938 195.734375 89.9375 C 200.726562 140.234375 164.496094 165.675781 154.648438 165.675781 C 183.796875 149.152344 183 118.902344 182.304688 104.964844 C 178.625 103.96875 165.890625 109.746094 155.742188 117.207031 C 145.597656 124.671875 125.5 130.839844 119.929688 131.738281 C 128.285156 120.691406 116.148438 120.394531 108.289062 131.4375 C 101.570312 140.882812 92.570312 145.472656 85.507812 147.363281 C 91.28125 151.34375 101.722656 148.359375 106.335938 146.398438 C 106.015625 148.628906 98.0625 158.175781 68.789062 160.085938 C 39.519531 161.996094 29.652344 170.273438 20.746094 179.183594 C 26.539062 162.539062 48.683594 151.25 57.246094 148.976562 " fill-opacity="1" fill-rule="nonzero"/></g></svg>